<?xml version="1.0" standalone="no"?>
<!DOCTYPE svg PUBLIC "-//W3C//DTD SVG 20010904//EN"
 "http://www.w3.org/TR/2001/REC-SVG-20010904/DTD/svg10.dtd">
<svg version="1.0" xmlns="http://www.w3.org/2000/svg"
 width="700.000000pt" height="700.000000pt" viewBox="0 0 700.000000 700.000000"
 preserveAspectRatio="xMidYMid meet">
<metadata>
Created by potrace 1.14, written by Peter Selinger 2001-2017
</metadata>
<g transform="translate(0.000000,700.000000) scale(0.100000,-0.100000)"
fill="#000000" stroke="none">
<path d="M1539 6996 c-2 -2 -25 -6 -50 -9 -50 -6 -146 -29 -224 -54 -105 -33
-297 -133 -342 -179 -8 -8 -18 -14 -23 -14 -16 0 -187 -177 -232 -240 -116
-164 -199 -358 -223 -521 -4 -24 -10 -64 -15 -89 -5 -25 -9 -400 -10 -835 0
-434 -3 -806 -6 -825 -3 -19 -7 -44 -9 -55 -2 -11 -7 -33 -10 -50 -3 -16 -23
-66 -45 -110 -55 -113 -127 -176 -240 -209 -30 -9 -56 -16 -57 -16 -2 0 -14 0
-28 0 l-25 0 0 -288 0 -288 74 -13 c169 -28 286 -160 331 -371 10 -51 13 -230
15 -855 0 -434 3 -808 6 -830 22 -184 55 -306 119 -442 64 -135 127 -224 235
-334 146 -147 305 -244 503 -307 188 -60 41 -57 2422 -57 2080 0 2194 1 2275
18 264 57 509 193 675 376 75 82 86 96 129 161 100 149 164 308 195 486 19
106 19 178 17 2489 -1 1309 -5 2394 -9 2410 -5 17 -15 57 -23 90 -129 508
-544 882 -1059 954 -65 9 -4356 16 -4366 7z m4003 -1795 c40 -13 102 -75 120
-119 11 -28 16 -2946 4 -3006 -10 -53 -60 -110 -120 -136 -36 -16 -75 -18
-338 -18 l-298 0 0 1551 c0 1009 4 1565 10 1588 16 58 51 101 105 129 50 26
52 26 265 25 144 -1 227 -5 252 -14z m-2051 -901 c59 -16 102 -51 130 -106
l26 -51 -2 -1034 c-1 -750 -4 -1041 -13 -1061 -17 -41 -83 -102 -123 -114 -53
-17 -616 -17 -621 -1 -2 7 -3 509 -3 1117 1 1041 2 1107 19 1139 23 44 62 79
110 101 32 15 70 18 240 19 110 0 217 -4 237 -9z m949 -12 c50 -21 92 -70 110
-125 20 -61 20 -408 0 -467 -15 -47 -59 -92 -113 -116 -37 -17 -70 -19 -329
-20 -269 0 -288 1 -289 17 -5 89 -1 537 5 567 13 66 51 113 119 145 32 16 64
18 250 16 167 -1 219 -4 247 -17z m-2032 -1454 c44 -18 87 -57 110 -99 15 -26
17 -72 19 -338 2 -295 1 -311 -19 -353 -24 -53 -79 -101 -128 -114 -19 -5
-203 -9 -408 -9 l-373 0 3 397 3 397 25 35 c31 44 45 56 95 80 37 18 65 20
338 20 247 0 304 -3 335 -16z"/>
</g>
</svg>
