<svg xmlns="http://www.w3.org/2000/svg" xmlns:xlink="http://www.w3.org/1999/xlink" viewBox="0 0 550 100"><defs><style>.cls-1{fill:url(#radial-gradient);}.cls-2{fill:#fff;}.cls-3{fill:url(#linear-gradient);}.cls-4{fill:url(#linear-gradient-2);}.cls-5{fill:url(#linear-gradient-3);}.cls-6{fill:url(#linear-gradient-4);}.cls-7{fill:url(#linear-gradient-5);}.cls-8{fill:url(#linear-gradient-6);}.cls-9{fill:url(#linear-gradient-8);}</style><radialGradient id="radial-gradient" cx="450.12" cy="0" r="140.11" gradientUnits="userSpaceOnUse"><stop offset="0" stop-color="#a239fe"/><stop offset="1" stop-color="#6610f2"/></radialGradient><linearGradient id="linear-gradient" x1="-1.29" y1="66.19" x2="422.02" y2="66.19" xlink:href="#radial-gradient"/><linearGradient id="linear-gradient-2" x1="-1.29" y1="50.01" x2="422.02" y2="50.01" xlink:href="#radial-gradient"/><linearGradient id="linear-gradient-3" x1="-1.29" y1="50.52" x2="422.02" y2="50.52" xlink:href="#radial-gradient"/><linearGradient id="linear-gradient-4" x1="-1.29" y1="49.97" x2="422.02" y2="49.97" xlink:href="#radial-gradient"/><linearGradient id="linear-gradient-5" x1="-1.29" y1="80.13" x2="422.02" y2="80.13" xlink:href="#radial-gradient"/><linearGradient id="linear-gradient-6" x1="-1.29" y1="42.11" x2="422.02" y2="42.11" xlink:href="#radial-gradient"/><linearGradient id="linear-gradient-8" x1="-1.29" y1="58.38" x2="422.02" y2="58.38" xlink:href="#radial-gradient"/></defs><g id="Layer_1" data-name="Layer 1"><path class="cls-1" d="M532,0H473.85C464.63,0,456,7,456,18.43v19.7c0,4.27-2,7.72-6,7.72v8.3c4,0,6,3.45,6,7.72V81.68c0,11.41,8.64,18.32,17.86,18.32H532a18.05,18.05,0,0,0,18-18V18A18.05,18.05,0,0,0,532,0Z"/><path class="cls-2" d="M523.11,25.49h5A2.94,2.94,0,0,1,531,28.43V69.61a2.94,2.94,0,0,1-2.94,2.94h-7.93a0,0,0,0,1,0,0V28.43A2.94,2.94,0,0,1,523.11,25.49Z"/><path class="cls-2" d="M475.94,59.29h7.38a2.94,2.94,0,0,1,2.94,2.94v7.38a2.94,2.94,0,0,1-2.94,2.94H473a0,0,0,0,1,0,0V62.23A2.94,2.94,0,0,1,475.94,59.29Z"/><path class="cls-2" d="M494.16,38.47h5a2.94,2.94,0,0,1,2.94,2.94v28.2a2.94,2.94,0,0,1-2.94,2.94h-7.93a0,0,0,0,1,0,0V41.41a2.94,2.94,0,0,1,2.94-2.94Z"/><path class="cls-2" d="M507.48,38.47h4.77a2.94,2.94,0,0,1,2.94,2.94v4.77a2.94,2.94,0,0,1-2.94,2.94h-7.71a0,0,0,0,1,0,0V41.41a2.94,2.94,0,0,1,2.94-2.94Z"/><path class="cls-3" d="M7.3,58.79a7.4,7.4,0,0,1,0,14.8,7.4,7.4,0,0,1,0-14.8Z"/><path class="cls-4" d="M24.5,28.44H35.94v6a18.54,18.54,0,0,1,13.88-7V38.77a14.49,14.49,0,0,0-3.16-.36c-3.78,0-8.82,2.19-10.72,5V72.59H24.5Z"/><path class="cls-5" d="M54.14,50.47c0-12.52,8.65-23.12,23-23.12S100.18,38,100.18,50.47,91.53,73.69,77.11,73.69,54.14,63.08,54.14,50.47Zm34.14,0c0-6.85-4-12.79-11.17-12.79S66,43.62,66,50.47s4,12.89,11.08,12.89S88.28,57.42,88.28,50.47Z"/><path class="cls-6" d="M138,45.9c0-6.12-3.15-8.22-8-8.22a12.32,12.32,0,0,0-9.91,5.21v29.7H108.64V28.44h11.44V34.2a19.81,19.81,0,0,1,15.23-6.85c9.55,0,14.14,5.48,14.14,14.07V72.59H138Z"/><path class="cls-7" d="M154.85,76.24H206.2V84H154.85Z"/><path class="cls-8" d="M211.6,11.63h11.45v61H211.6Z"/><path class="cls-5" d="M231.6,50.47c0-12.52,8.65-23.12,23-23.12S277.64,38,277.64,50.47,269,73.69,254.58,73.69,231.6,63.08,231.6,50.47Zm34.15,0c0-6.85-4.06-12.79-11.17-12.79s-11.09,5.94-11.09,12.79,4,12.89,11.09,12.89S265.75,57.42,265.75,50.47Z"/><path class="cls-9" d="M286.1,89.41v-61h11.44V34A16.73,16.73,0,0,1,311,27.35c11.17,0,19.28,8.41,19.28,23.12S322.14,73.69,311,73.69a16.56,16.56,0,0,1-13.43-6.77V89.41Zm21.26-51.73a12.78,12.78,0,0,0-9.82,5V58.33a13.07,13.07,0,0,0,9.82,5c6.58,0,11-5.21,11-12.89S313.94,37.68,307.36,37.68Z"/><path class="cls-5" d="M358.53,27.35c13,0,21.8,9.87,21.8,24.31v2.56H348c.72,5.57,5.14,10.23,12.52,10.23,4.06,0,8.83-1.64,11.62-4.38l5.05,7.49c-4.32,4-11.17,6.13-17.93,6.13-13.24,0-23.24-9-23.24-23.22C336,37.68,345.29,27.35,358.53,27.35Zm-10.72,19h21.44c-.27-4.21-3.15-9.78-10.72-9.78C351.41,36.58,348.35,42,347.81,46.36Z"/><path class="cls-5" d="M386.73,63.91l19.64-25.32H386.73V28.44h35.13v8.41L402,62.44h20.27V72.59H386.73Z"/></g></svg>